<?xml version="1.0" encoding="UTF-8" standalone="no"?>
<!-- Created with Inkscape (http://www.inkscape.org/) -->

<svg
   version="1.1"
   id="svg2"
   width="1333.3333"
   height="1333.3333"
   viewBox="0 0 1333.3333 1333.3333"
   sodipodi:docname="LogoVectorial DrVeronicaMatei.ai"
   xmlns:inkscape="http://www.inkscape.org/namespaces/inkscape"
   xmlns:sodipodi="http://sodipodi.sourceforge.net/DTD/sodipodi-0.dtd"
   xmlns="http://www.w3.org/2000/svg"
   xmlns:svg="http://www.w3.org/2000/svg">
  <defs
     id="defs6">
    <linearGradient
       x1="0"
       y1="0"
       x2="1"
       y2="0"
       gradientUnits="userSpaceOnUse"
       gradientTransform="matrix(93.85778,124.06488,124.06488,-93.85778,197.4464,463.00436)"
       spreadMethod="pad"
       id="linearGradient28">
      <stop
         style="stop-opacity:1;stop-color:#0094d1"
         offset="0"
         id="stop24" />
      <stop
         style="stop-opacity:1;stop-color:#ffffff"
         offset="1"
         id="stop26" />
    </linearGradient>
    <linearGradient
       x1="0"
       y1="0"
       x2="1"
       y2="0"
       gradientUnits="userSpaceOnUse"
       gradientTransform="matrix(113.27662,115.43422,115.43422,-113.27662,142.57988,462.54926)"
       spreadMethod="pad"
       id="linearGradient48">
      <stop
         style="stop-opacity:1;stop-color:#0094d1"
         offset="0"
         id="stop44" />
      <stop
         style="stop-opacity:1;stop-color:#ffffff"
         offset="1"
         id="stop46" />
    </linearGradient>
    <linearGradient
       x1="0"
       y1="0"
       x2="1"
       y2="0"
       gradientUnits="userSpaceOnUse"
       gradientTransform="matrix(49.371006,19.964224,19.964224,-49.371006,148.15834,555.96906)"
       spreadMethod="pad"
       id="linearGradient68">
      <stop
         style="stop-opacity:1;stop-color:#0094d1"
         offset="0"
         id="stop64" />
      <stop
         style="stop-opacity:1;stop-color:#ffffff"
         offset="1"
         id="stop66" />
    </linearGradient>
    <linearGradient
       x1="0"
       y1="0"
       x2="1"
       y2="0"
       gradientUnits="userSpaceOnUse"
       gradientTransform="matrix(58.467129,0,0,-58.467129,122.03922,527.71814)"
       spreadMethod="pad"
       id="linearGradient88">
      <stop
         style="stop-opacity:1;stop-color:#0094d1"
         offset="0"
         id="stop84" />
      <stop
         style="stop-opacity:1;stop-color:#ffffff"
         offset="1"
         id="stop86" />
    </linearGradient>
    <linearGradient
       x1="0"
       y1="0"
       x2="1"
       y2="0"
       gradientUnits="userSpaceOnUse"
       gradientTransform="matrix(25.6299,-75.001022,-75.001022,-25.6299,217.69684,492.95523)"
       spreadMethod="pad"
       id="linearGradient108">
      <stop
         style="stop-opacity:1;stop-color:#0094d1"
         offset="0"
         id="stop104" />
      <stop
         style="stop-opacity:1;stop-color:#ffffff"
         offset="1"
         id="stop106" />
    </linearGradient>
    <linearGradient
       x1="0"
       y1="0"
       x2="1"
       y2="0"
       gradientUnits="userSpaceOnUse"
       gradientTransform="matrix(0.3768,0,0,-0.3768,196.33224,476.20755)"
       spreadMethod="pad"
       id="linearGradient128">
      <stop
         style="stop-opacity:1;stop-color:#0094d1"
         offset="0"
         id="stop124" />
      <stop
         style="stop-opacity:1;stop-color:#ffffff"
         offset="1"
         id="stop126" />
    </linearGradient>
    <linearGradient
       x1="0"
       y1="0"
       x2="1"
       y2="0"
       gradientUnits="userSpaceOnUse"
       gradientTransform="matrix(48.893391,-34.351379,-34.351379,-48.893391,219.66594,518.99762)"
       spreadMethod="pad"
       id="linearGradient148">
      <stop
         style="stop-opacity:1;stop-color:#0094d1"
         offset="0"
         id="stop144" />
      <stop
         style="stop-opacity:1;stop-color:#ffffff"
         offset="1"
         id="stop146" />
    </linearGradient>
    <linearGradient
       x1="0"
       y1="0"
       x2="1"
       y2="0"
       gradientUnits="userSpaceOnUse"
       gradientTransform="matrix(0.1565,0,0,-0.1565,158.18364,425.08484)"
       spreadMethod="pad"
       id="linearGradient168">
      <stop
         style="stop-opacity:1;stop-color:#0094d1"
         offset="0"
         id="stop164" />
      <stop
         style="stop-opacity:1;stop-color:#ffffff"
         offset="1"
         id="stop166" />
    </linearGradient>
    <linearGradient
       x1="0"
       y1="0"
       x2="1"
       y2="0"
       gradientUnits="userSpaceOnUse"
       gradientTransform="matrix(0.4415,0,0,-0.4415,196.76204,477.82379)"
       spreadMethod="pad"
       id="linearGradient188">
      <stop
         style="stop-opacity:1;stop-color:#0094d1"
         offset="0"
         id="stop184" />
      <stop
         style="stop-opacity:1;stop-color:#ffffff"
         offset="1"
         id="stop186" />
    </linearGradient>
    <clipPath
       clipPathUnits="userSpaceOnUse"
       id="clipPath198">
      <path
         d="M 0,1000 H 1000 V 0 H 0 Z"
         id="path196" />
    </clipPath>
    <linearGradient
       x1="0"
       y1="0"
       x2="1"
       y2="0"
       gradientUnits="userSpaceOnUse"
       gradientTransform="matrix(48.892967,-34.351097,34.351097,48.892967,219.666,518.99768)"
       spreadMethod="pad"
       id="linearGradient222">
      <stop
         style="stop-opacity:1;stop-color:#007fc8"
         offset="0"
         id="stop216" />
      <stop
         style="stop-opacity:1;stop-color:#007fc8"
         offset="0.09943985"
         id="stop218" />
      <stop
         style="stop-opacity:1;stop-color:#ffffff"
         offset="1"
         id="stop220" />
    </linearGradient>
    <clipPath
       clipPathUnits="userSpaceOnUse"
       id="clipPath232">
      <path
         d="M 0,1000 H 1000 V 0 H 0 Z"
         id="path230" />
    </clipPath>
    <clipPath
       clipPathUnits="userSpaceOnUse"
       id="clipPath308">
      <path
         d="M 0,1000 H 1000 V 0 H 0 Z"
         id="path306" />
    </clipPath>
  </defs>
  <sodipodi:namedview
     id="namedview4"
     pagecolor="#ffffff"
     bordercolor="#000000"
     borderopacity="0.25"
     inkscape:showpageshadow="2"
     inkscape:pageopacity="0.0"
     inkscape:pagecheckerboard="0"
     inkscape:deskcolor="#d1d1d1" />
  <g
     id="g8"
     inkscape:groupmode="layer"
     inkscape:label="LogoVectorial DrVeronicaMatei"
     transform="matrix(1.3333333,0,0,-1.3333333,0,1333.3333)">
    <path
       d="M 0,0 H 1000 V 1000 H 0 Z"
       style="fill:#000419;fill-opacity:1;fill-rule:nonzero;stroke:none"
       id="path10" />
    <g
       id="g12">
      <g
         id="g14">
        <g
           id="g20">
          <g
             id="g22">
            <path
               d="m 158.184,425.649 c 13.253,-12.672 28.635,-19.889 37.092,-23.202 v 0 c 2.432,-0.952 4.833,1.423 3.916,3.868 v 0 c -9.707,25.898 -8.643,49.708 -2.483,70.289 v 0 c 0.161,0.54 0.326,1.078 0.494,1.614 v 0 c 0.001,0 0.001,10e-4 0.001,10e-4 v 0 c 14.437,45.87 53.862,75.278 53.862,75.278 v 0 c -1.063,5.668 -3.6,9.737 -7.235,12.409 v 0 C 153.227,499.174 157.103,434.865 158.184,425.649"
               style="fill:url(#linearGradient28);stroke:none"
               id="path30" />
          </g>
        </g>
      </g>
    </g>
    <g
       id="g32">
      <g
         id="g34">
        <g
           id="g40">
          <g
             id="g42">
            <path
               d="m 205.159,564.28 c -8.107,-3.34 -16.542,-8.033 -24.652,-13.733 v 0 C 155.082,532.68 132.848,504.933 133.93,478.042 v 0 c 0.938,-23.305 11.63,-40.323 24.254,-52.393 v 0 c -1.081,9.216 -4.957,73.525 85.647,140.257 v 0 c -3.747,2.752 -8.659,4.019 -14.331,4.019 v 0 c -7.176,0 -15.566,-2.029 -24.341,-5.645"
               style="fill:url(#linearGradient48);stroke:none"
               id="path50" />
          </g>
        </g>
      </g>
    </g>
    <g
       id="g52">
      <g
         id="g54">
        <g
           id="g60">
          <g
             id="g62">
            <path
               d="m 144.119,564.669 c -0.932,-10.283 17.947,-21.282 36.388,-14.122 v 0 c 8.11,5.7 16.545,10.393 24.652,13.733 v 0 c 0,0 -17.645,-2.241 -31.958,7.43 v 0 c -5.282,3.568 -11.517,5.64 -17.677,5.683 v 0 c -2.504,-0.798 -10.619,-4.04 -11.405,-12.724"
               style="fill:url(#linearGradient68);stroke:none"
               id="path70" />
          </g>
        </g>
      </g>
    </g>
    <g
       id="g72">
      <g
         id="g74">
        <g
           id="g80">
          <g
             id="g82">
            <path
               d="M 138.292,570.912 C 122.013,556.091 120.003,531.88 123.49,511.443 v 0 c 1.385,-8.123 3.604,-16.109 6.456,-23.837 v 0 c 0.878,-2.38 1.815,-4.741 2.836,-7.062 v 0 c 0.283,-0.645 1.119,-1.786 1.148,-2.502 v 0 c -1.082,26.891 21.152,54.638 46.577,72.505 v 0 c -18.441,-7.16 -37.32,3.839 -36.388,14.122 v 0 c 0.786,8.684 8.901,11.926 11.405,12.724 v 0 c -0.067,10e-4 -0.134,10e-4 -0.201,10e-4 v 0 c -6.09,0 -12.097,-1.99 -17.031,-6.482"
               style="fill:url(#linearGradient88);stroke:none"
               id="path90" />
          </g>
        </g>
      </g>
    </g>
    <g
       id="g92">
      <g
         id="g94">
        <g
           id="g100">
          <g
             id="g102">
            <path
               d="m 197.204,478.219 c 0,0 0,-10e-4 -0.001,-10e-4 v 0 c -0.168,-0.536 -0.333,-1.074 -0.494,-1.614 v 0 c 3.398,6.736 8.317,6.106 8.317,6.106 v 0 c 15.522,0 14.173,-23.481 7.528,-35.293 v 0 c -6.646,-11.811 0.665,-25.294 28.07,14.533 v 0 c 3.611,5.247 6.451,10.7 8.662,16.215 v 0 c -1.342,4.942 -6.006,14.121 -22.174,14.808 v 0 c -0.619,0.027 -1.227,0.039 -1.825,0.039 v 0 c -17.99,0 -26.185,-11.626 -28.083,-14.793"
               style="fill:url(#linearGradient108);stroke:none"
               id="path110" />
          </g>
        </g>
      </g>
    </g>
    <g
       id="g112">
      <g
         id="g114">
        <g
           id="g120">
          <g
             id="g122">
            <path
               d="m 196.332,475.811 0.377,0.793 c -0.127,-0.254 -0.253,-0.518 -0.377,-0.793"
               style="fill:url(#linearGradient128);stroke:none"
               id="path130" />
          </g>
        </g>
      </g>
    </g>
    <g
       id="g132">
      <g
         id="g134">
        <g
           id="g140">
          <g
             id="g142">
            <path
               d="m 197.204,478.219 c 1.961,3.272 10.644,15.575 29.908,14.754 v 0 c 16.168,-0.687 20.832,-9.866 22.174,-14.808 v 0 c 14.567,36.342 1.78,75.332 1.78,75.332 v 0 c 0,0 -39.425,-29.408 -53.862,-75.278"
               style="fill:url(#linearGradient148);stroke:none"
               id="path150" />
          </g>
        </g>
      </g>
    </g>
    <g
       id="g152">
      <g
         id="g154">
        <g
           id="g160">
          <g
             id="g162">
            <path
               d="m 158.34,424.521 -0.156,1.128 c 0.086,-0.743 0.156,-1.128 0.156,-1.128"
               style="fill:url(#linearGradient168);stroke:none"
               id="path170" />
          </g>
        </g>
      </g>
    </g>
    <g
       id="g172">
      <g
         id="g174">
        <g
           id="g180">
          <g
             id="g182">
            <path
               d="m 196.762,477.43 0.441,0.788 c -0.298,-0.499 -0.441,-0.788 -0.441,-0.788"
               style="fill:url(#linearGradient188);stroke:none"
               id="path190" />
          </g>
        </g>
      </g>
    </g>
    <g
       id="g192">
      <g
         id="g194"
         clip-path="url(#clipPath198)">
        <g
           id="g200"
           transform="translate(205.1589,486.7652)">
          <path
             d="m 0,0 c -4.449,-3.254 -6.95,-6.883 -7.921,-8.49 0.971,1.607 3.472,5.235 7.921,8.489 v 0 M -7.921,-8.49 c -10e-4,-0.003 -0.003,-0.007 -0.005,-0.009 0.002,0.003 0.003,0.006 0.005,0.009 M -7.927,-8.5 c -0.009,-0.016 -0.018,-0.031 -0.027,-0.047 0.009,0.016 0.018,0.031 0.027,0.047"
             style="fill:#666666;fill-opacity:1;fill-rule:nonzero;stroke:none"
             id="path202" />
        </g>
      </g>
    </g>
    <g
       id="g204">
      <g
         id="g206">
        <g
           id="g212">
          <g
             id="g214">
            <path
               d="m 197.204,478.219 c 0.009,0.015 0.019,0.03 0.028,0.045 v 0 l 0.001,10e-4 c 0.002,0.004 0.004,0.007 0.006,0.009 v 0 10e-4 c 0.97,1.608 3.472,5.236 7.92,8.49 v 0 c 10.684,36.868 45.907,66.732 45.907,66.732 v 0 c 0,0 -39.425,-29.408 -53.862,-75.278"
               style="fill:url(#linearGradient222);stroke:none"
               id="path224" />
          </g>
        </g>
      </g>
    </g>
    <g
       id="g226">
      <g
         id="g228"
         clip-path="url(#clipPath232)">
        <g
           id="g234"
           transform="translate(304.6462,486.1631)">
          <path
             d="m 0,0 c 1.864,5.055 5.332,11.589 10.406,19.602 5.073,8.012 9.599,14.922 13.578,20.731 0.788,1.11 1.47,2.114 2.044,3.011 0.537,0.788 0.833,1.38 0.887,1.775 0.054,0.394 -0.009,0.672 -0.188,0.833 -0.18,0.161 -0.395,0.296 -0.645,0.403 -0.215,0.036 -0.386,0.108 -0.511,0.216 -0.126,0.107 -0.153,0.259 -0.081,0.457 0.072,0.196 0.269,0.492 0.592,0.887 0.501,0.573 1.379,1.47 2.635,2.689 1.254,1.218 2.527,2.294 3.818,3.227 1.291,0.931 2.24,1.236 2.85,0.914 0.394,-0.288 0.511,-0.736 0.349,-1.345 -0.161,-0.61 -0.457,-1.255 -0.887,-1.936 -0.43,-0.681 -0.825,-1.29 -1.183,-1.828 C 33.449,49.313 33.269,49.062 33.126,48.883 31.083,45.691 28.287,41.533 24.737,36.407 20.076,29.738 15.479,22.909 10.943,15.918 6.408,8.927 3.405,3.388 1.936,-0.699 1.756,-1.38 1.469,-1.766 1.075,-1.855 0.681,-1.944 0.358,-1.81 0.107,-1.452 -0.144,-1.093 -0.18,-0.609 0,0 m -6.453,28.501 c -4.805,1.721 -7.216,3.89 -7.234,6.507 -0.018,2.617 1.318,5.333 4.007,8.148 2.689,2.814 5.745,5.35 9.169,7.609 3.423,2.259 6.211,3.89 8.362,4.894 8.21,3.836 16.877,6.703 26.002,8.604 9.123,1.9 17.638,2.617 25.543,2.151 7.906,-0.466 14.134,-2.339 18.688,-5.62 4.552,-3.28 6.373,-8.165 5.458,-14.654 C 82.628,39.651 77.904,31.352 69.372,21.242 59.262,9.626 46.848,-0.313 32.131,-8.578 17.415,-16.841 2.455,-22.281 -12.745,-24.899 c -0.968,-0.179 -2.447,-0.394 -4.437,-0.645 -1.989,-0.25 -3.925,-0.331 -5.808,-0.242 -1.882,0.09 -3.128,0.547 -3.737,1.371 -0.43,0.86 -0.386,1.479 0.134,1.855 0.519,0.377 1.192,0.296 2.017,-0.242 1.541,-0.501 3.826,-0.519 6.856,-0.053 3.03,0.466 5.656,0.95 7.879,1.452 0.286,0.072 0.555,0.126 0.806,0.161 14.269,3.048 28.188,8.524 41.758,16.429 13.569,7.905 25.051,17.235 34.444,27.991 8.174,9.715 12.646,17.531 13.417,23.447 0.771,5.915 -1.102,10.225 -5.619,12.933 -4.517,2.706 -10.568,4.104 -18.15,4.194 C 49.232,63.841 41.184,62.919 32.669,60.983 24.154,59.047 16.276,56.375 9.034,52.97 7.564,52.289 5.351,51.025 2.393,49.179 -0.565,47.332 -3.344,45.226 -5.942,42.86 c -2.6,-2.366 -4.115,-4.679 -4.545,-6.937 -0.43,-2.259 1.147,-4.141 4.733,-5.647 0.43,-0.215 0.69,-0.493 0.779,-0.833 0.09,-0.341 0.009,-0.628 -0.241,-0.861 -0.252,-0.233 -0.664,-0.26 -1.237,-0.081"
             style="fill:#ffffff;fill-opacity:1;fill-rule:nonzero;stroke:none"
             id="path236" />
        </g>
        <g
           id="g238"
           transform="translate(387.5471,499.204)">
          <path
             d="M 0,0 C 0.143,0.896 0.054,1.685 -0.269,2.366 -0.591,3.047 -0.95,3.396 -1.344,3.415 -1.739,3.433 -1.918,2.868 -1.882,1.721 -1.847,1.542 -1.739,1.246 -1.56,0.834 c 0.18,-0.413 0.385,-0.798 0.619,-1.156 0.233,-0.359 0.457,-0.538 0.672,-0.538 0.072,0 0.116,0.045 0.135,0.134 0.017,0.089 0.027,0.188 0.027,0.296 C -0.072,-0.287 -0.036,-0.144 0,0 m -2.581,-2.097 c -1.004,1.218 -1.578,2.401 -1.721,3.549 -0.073,1.721 0.448,2.94 1.559,3.657 1.111,0.717 2.438,0.484 3.98,-0.699 C 1.81,3.765 2.178,2.958 2.339,1.99 2.5,1.022 2.33,-0.09 1.829,-1.344 1.613,-1.774 1.533,-2.106 1.586,-2.339 1.64,-2.573 1.9,-2.796 2.366,-3.011 5.198,-4.267 7.152,-5.719 8.228,-7.367 9.303,-9.017 8.819,-11.186 6.776,-13.874 5.7,-15.272 4.679,-16.985 3.71,-19.01 c -0.967,-2.026 -1.272,-3.81 -0.914,-5.351 0.431,-1.003 1.568,-1.245 3.415,-0.725 1.846,0.519 3.881,1.406 6.104,2.661 2.223,1.255 4.141,2.474 5.754,3.657 0.502,0.43 0.896,0.636 1.183,0.619 0.287,-0.019 0.439,-0.171 0.457,-0.457 0.018,-0.288 -0.134,-0.592 -0.457,-0.915 -4.768,-4.194 -9.053,-6.722 -12.853,-7.583 -3.8,-0.86 -6.076,-0.053 -6.829,2.421 -0.753,2.474 1.039,6.596 5.377,12.369 1.219,1.684 1.399,3.055 0.538,4.113 -0.86,1.057 -2.169,2.071 -3.925,3.039 -0.073,0.035 -0.126,0.071 -0.162,0.107 -0.358,0.251 -0.672,0.35 -0.941,0.296 -0.269,-0.054 -0.618,-0.376 -1.048,-0.968 -0.43,-0.591 -0.753,-1.013 -0.969,-1.264 -0.573,-0.717 -1.075,-1.102 -1.505,-1.156 -0.431,-0.054 -0.745,0.081 -0.941,0.403 -0.198,0.323 -0.261,0.681 -0.188,1.076 0.107,0.358 0.286,0.555 0.537,0.591 0.251,0.036 0.771,0.502 1.56,1.399 0.358,0.501 0.457,0.958 0.296,1.371 -0.162,0.411 -0.422,0.815 -0.78,1.21"
             style="fill:#ffffff;fill-opacity:1;fill-rule:nonzero;stroke:none"
             id="path240" />
        </g>
        <g
           id="g242"
           transform="translate(413.2334,469.4658)">
          <path
             d="m 0,0 c -0.574,-0.143 -1.014,-0.044 -1.318,0.296 -0.305,0.341 -0.475,0.771 -0.511,1.29 -0.036,0.52 0.036,0.995 0.216,1.425 0.43,0.753 1.03,1.085 1.801,0.995 C 0.958,3.917 1.56,3.532 1.99,2.85 2.168,2.492 2.205,2.133 2.097,1.774 1.99,1.417 1.774,1.129 1.452,0.914 1.165,0.771 0.896,0.591 0.645,0.376 0.358,0.197 0.143,0.072 0,0"
             style="fill:#ffffff;fill-opacity:1;fill-rule:nonzero;stroke:none"
             id="path244" />
        </g>
        <g
           id="g246"
           transform="translate(438.6694,523.6242)">
          <path
             d="m 0,0 c 0.071,-1.148 -0.225,-1.936 -0.887,-2.366 -0.664,-0.43 -1.372,-0.484 -2.125,-0.161 -0.753,0.322 -1.219,1.057 -1.398,2.204 -0.18,1.147 0.25,2.724 1.291,4.733 1.398,2.401 3.988,4.921 7.77,7.555 3.783,2.636 8.175,5.109 13.176,7.422 5.001,2.312 9.993,4.203 14.977,5.673 4.983,1.47 9.357,2.25 13.121,2.339 3.764,0.089 6.301,-0.762 7.61,-2.554 1.308,-1.793 0.797,-4.804 -1.533,-9.034 -12.835,-22.838 -24.737,-46.124 -35.708,-69.857 -0.287,-0.645 -0.556,-1.183 -0.806,-1.613 -0.43,-0.824 -0.574,-1.245 -0.43,-1.264 0.142,-0.017 0.788,0.44 1.935,1.372 11.294,9.07 22.407,18.606 33.342,28.609 5.019,4.517 10.038,8.962 15.058,13.337 0.538,0.465 1.218,1.039 2.044,1.72 3.907,3.477 9.482,8.309 16.724,14.493 7.241,6.184 14.295,11.903 21.161,17.155 6.865,5.252 11.697,8.237 14.492,8.954 1.65,0.323 2.671,-0.323 3.066,-1.936 0.071,-0.395 0.071,-0.744 0,-1.049 -0.072,-0.305 -0.305,-0.511 -0.699,-0.618 -0.43,-0.072 -0.726,-0.054 -0.887,0.053 -0.161,0.108 -0.278,0.251 -0.35,0.431 -0.036,0.143 -0.107,0.259 -0.215,0.349 -0.107,0.09 -0.305,0.116 -0.591,0.081 -0.287,-0.036 -0.718,-0.161 -1.291,-0.376 -3.693,-1.721 -8.3,-4.706 -13.821,-8.954 C 99.505,12.449 93.841,7.789 88.033,2.716 82.225,-2.358 77.044,-6.956 72.491,-11.078 70.16,-13.229 68.153,-15.04 66.469,-16.509 62.668,-19.916 58.796,-23.411 54.853,-26.996 48.937,-32.41 42.941,-37.769 36.864,-43.075 30.787,-48.381 24.665,-53.293 18.499,-57.81 c -1.327,-0.932 -2.635,-1.649 -3.926,-2.151 -1.29,-0.502 -2.294,-0.654 -3.011,-0.457 -0.718,0.197 -0.843,0.887 -0.376,2.07 0.68,1.65 1.415,3.299 2.204,4.948 0.215,0.466 0.43,0.932 0.646,1.398 10.826,23.267 22.586,46.05 35.277,68.35 2.294,4.195 2.241,6.794 -0.161,7.798 -2.402,1.003 -6.131,0.887 -11.186,-0.35 C 32.911,22.56 27.534,20.668 21.833,18.123 16.133,15.577 11.123,12.853 6.803,9.949 2.482,7.045 -0.126,4.445 -1.022,2.151 -1.129,1.829 -1.183,1.586 -1.183,1.425 c 0,-0.161 0.044,-0.269 0.134,-0.322 0.09,-0.054 0.189,-0.1 0.296,-0.135 C -0.61,0.932 -0.457,0.851 -0.296,0.726 -0.135,0.6 -0.036,0.358 0,0"
             style="fill:#ffffff;fill-opacity:1;fill-rule:nonzero;stroke:none"
             id="path248" />
        </g>
        <g
           id="g250"
           transform="translate(510.9735,488.7177)">
          <path
             d="m 0,0 c -0.323,-0.107 -0.879,-0.403 -1.668,-0.887 -0.788,-0.484 -1.622,-1.031 -2.5,-1.64 -0.879,-0.611 -1.641,-1.183 -2.286,-1.721 -0.645,-0.538 -1.022,-0.933 -1.129,-1.183 -0.107,-0.252 0.215,-0.252 0.968,0 1.04,0.394 2.312,1.083 3.818,2.07 1.506,0.986 2.652,1.891 3.442,2.716 C 1.003,-0.251 1.156,0 1.102,0.107 1.048,0.215 0.681,0.179 0,0 M 1.075,2.958 C 3.082,2.528 3.89,1.667 3.495,0.376 3.101,-0.914 2.061,-2.258 0.376,-3.657 -1.31,-5.055 -3.058,-6.104 -4.867,-6.803 c -1.811,-0.699 -3.128,-0.672 -3.952,0.081 -0.575,-0.717 -1.229,-1.659 -1.963,-2.823 -0.736,-1.166 -1.156,-2.197 -1.265,-3.093 0,-1.362 0.933,-1.953 2.797,-1.774 1.863,0.179 4.087,0.77 6.668,1.774 2.582,1.004 4.948,2.035 7.099,3.093 2.151,1.057 3.513,1.783 4.087,2.178 0.43,0.286 0.834,0.411 1.21,0.376 0.376,-0.036 0.538,-0.234 0.484,-0.592 -0.054,-0.358 -0.529,-0.86 -1.425,-1.505 -1.076,-0.753 -2.895,-1.82 -5.459,-3.2 -2.563,-1.38 -5.279,-2.572 -8.146,-3.576 -2.87,-1.003 -5.307,-1.344 -7.315,-1.022 -2.007,0.323 -2.974,1.793 -2.903,4.41 0.179,1.756 1.182,3.853 3.012,6.292 1.828,2.437 3.952,4.579 6.372,6.426 2.42,1.846 4.633,2.751 6.641,2.716"
             style="fill:#ffffff;fill-opacity:1;fill-rule:nonzero;stroke:none"
             id="path252" />
        </g>
        <g
           id="g254"
           transform="translate(529.568,499.204)">
          <path
             d="M 0,0 C 0.144,0.896 0.054,1.685 -0.269,2.366 -0.591,3.047 -0.95,3.396 -1.344,3.415 -1.739,3.433 -1.918,2.868 -1.882,1.721 -1.847,1.542 -1.739,1.246 -1.56,0.834 c 0.18,-0.413 0.385,-0.798 0.62,-1.156 0.232,-0.359 0.457,-0.538 0.671,-0.538 0.072,0 0.117,0.045 0.135,0.134 0.018,0.089 0.027,0.188 0.027,0.296 C -0.072,-0.287 -0.036,-0.144 0,0 m -2.581,-2.097 c -1.004,1.218 -1.578,2.401 -1.721,3.549 -0.072,1.721 0.448,2.94 1.56,3.657 1.11,0.717 2.437,0.484 3.979,-0.699 C 1.811,3.765 2.179,2.958 2.34,1.99 2.501,1.022 2.33,-0.09 1.829,-1.344 1.613,-1.774 1.533,-2.106 1.587,-2.339 1.641,-2.573 1.9,-2.796 2.366,-3.011 c 2.832,-1.256 4.786,-2.708 5.863,-4.356 1.075,-1.65 0.59,-3.819 -1.453,-6.507 -1.076,-1.398 -2.097,-3.111 -3.065,-5.136 -0.968,-2.026 -1.273,-3.81 -0.914,-5.351 0.43,-1.003 1.567,-1.245 3.415,-0.725 1.846,0.519 3.88,1.406 6.103,2.661 2.223,1.255 4.141,2.474 5.754,3.657 0.502,0.43 0.896,0.636 1.183,0.619 0.287,-0.019 0.439,-0.171 0.458,-0.457 0.018,-0.288 -0.135,-0.592 -0.458,-0.915 -4.768,-4.194 -9.053,-6.722 -12.853,-7.583 -3.799,-0.86 -6.076,-0.053 -6.829,2.421 -0.753,2.474 1.039,6.596 5.377,12.369 1.219,1.684 1.399,3.055 0.538,4.113 -0.86,1.057 -2.169,2.071 -3.925,3.039 -0.073,0.035 -0.126,0.071 -0.162,0.107 -0.358,0.251 -0.671,0.35 -0.941,0.296 -0.269,-0.054 -0.618,-0.376 -1.048,-0.968 -0.43,-0.591 -0.753,-1.013 -0.969,-1.264 -0.573,-0.717 -1.075,-1.102 -1.505,-1.156 -0.43,-0.054 -0.745,0.081 -0.941,0.403 -0.197,0.323 -0.261,0.681 -0.188,1.076 0.107,0.358 0.286,0.555 0.538,0.591 0.25,0.036 0.77,0.502 1.559,1.399 0.358,0.501 0.457,0.958 0.296,1.371 -0.162,0.411 -0.422,0.815 -0.78,1.21"
             style="fill:#ffffff;fill-opacity:1;fill-rule:nonzero;stroke:none"
             id="path256" />
        </g>
        <g
           id="g258"
           transform="translate(556.7252,473.3378)">
          <path
             d="m 0,0 c -2.51,-2.438 -4.866,-3.334 -7.071,-2.689 -2.205,0.645 -3.272,2.554 -3.2,5.727 0.073,3.173 2.313,7.322 6.722,12.449 1.685,1.829 3.029,2.886 4.033,3.173 0.825,0.287 1.453,0.26 1.882,-0.08 C 2.797,18.239 2.814,17.566 2.421,16.563 1.668,15.774 1.058,15.29 0.592,15.111 0.126,14.931 -0.251,14.86 -0.537,14.896 -0.681,14.896 -0.815,14.887 -0.94,14.869 -1.066,14.851 -1.183,14.77 -1.29,14.627 -4.696,10.575 -6.767,7.313 -7.501,4.84 -8.236,2.366 -8.139,0.69 -7.206,-0.188 c 0.933,-0.878 2.186,-0.905 3.765,-0.081 0.716,0.43 1.523,1.237 2.42,2.42 0.895,1.183 1.63,2.348 2.205,3.495 0.107,0.179 0.196,0.323 0.268,0.431 0.108,0.142 0.162,0.268 0.162,0.376 0,0.108 -0.091,0.233 -0.269,0.377 -0.646,0.645 -1.201,1.496 -1.667,2.554 -0.466,1.057 -0.557,2.016 -0.269,2.877 0.286,0.573 0.824,0.824 1.613,0.753 C 1.811,12.941 2.563,12.53 3.281,11.777 3.998,11.024 4.374,9.895 4.41,8.389 4.481,7.313 4.858,6.569 5.539,6.157 6.22,5.745 6.973,5.601 7.798,5.727 c 0.824,0.125 1.506,0.439 2.044,0.941 0.466,0.43 0.797,0.546 0.995,0.35 C 11.033,6.82 11.006,6.488 10.756,6.023 10.505,5.557 9.949,5.126 9.089,4.732 7.726,4.194 6.677,3.997 5.942,4.141 5.208,4.284 4.66,4.481 4.303,4.732 4.052,4.947 3.818,5.045 3.604,5.028 3.389,5.009 3.173,4.786 2.958,4.356 2.6,3.71 2.143,2.958 1.587,2.097 1.03,1.237 0.502,0.538 0,0"
             style="fill:#ffffff;fill-opacity:1;fill-rule:nonzero;stroke:none"
             id="path260" />
        </g>
        <g
           id="g262"
           transform="translate(562.6412,473.9828)">
          <path
             d="m 0,0 c 0.718,1.756 1.802,3.89 3.253,6.399 1.452,2.51 2.859,4.912 4.222,7.206 0.753,1.219 1.398,2.277 1.936,3.173 -0.216,0.287 -0.323,0.592 -0.323,0.915 0,0.322 0.107,0.609 0.323,0.86 0.932,1.003 1.613,1.56 2.043,1.667 l 0.108,0.054 c 0.323,0.107 0.609,0.107 0.86,0 0.538,-0.18 0.879,-0.52 1.022,-1.022 v -0.161 -0.108 c 0,-0.322 -0.09,-0.645 -0.269,-0.968 C 11.849,15.864 10.369,13.417 8.738,10.675 7.106,7.932 5.664,5.449 4.409,3.227 c 0.861,0.824 2.25,2.016 4.168,3.576 1.918,1.559 3.836,3.011 5.754,4.356 1.918,1.344 3.289,2.052 4.114,2.124 1.291,-0.036 2.026,-0.547 2.205,-1.533 0.179,-0.986 0.179,-2.088 0,-3.307 -0.107,-0.933 -0.126,-1.73 -0.053,-2.393 0.071,-0.664 0.438,-0.995 1.102,-0.995 0.662,0 1.801,0.538 3.414,1.613 0.466,0.287 0.798,0.358 0.995,0.215 C 26.305,6.74 26.368,6.498 26.297,6.158 26.225,5.816 26.028,5.539 25.705,5.324 22.479,3.28 20.345,2.895 19.306,4.168 18.266,5.44 17.997,7.618 18.499,10.702 17.746,10.629 16.617,9.993 15.111,8.792 13.605,7.591 11.974,6.202 10.218,4.625 8.676,3.262 7.206,2.007 5.808,0.86 4.409,-0.287 3.227,-1.111 2.259,-1.613 1.542,-1.936 0.933,-1.936 0.43,-1.613 -0.071,-1.291 -0.215,-0.753 0,0"
             style="fill:#ffffff;fill-opacity:1;fill-rule:nonzero;stroke:none"
             id="path264" />
        </g>
        <g
           id="g266"
           transform="translate(600.608,499.0429)">
          <path
             d="m 0,0 c 0.968,-0.072 1.416,-0.368 1.344,-0.887 -0.073,-0.52 -0.421,-1.041 -1.048,-1.56 -0.628,-0.52 -1.291,-0.86 -1.99,-1.022 -0.7,-0.161 -1.21,0.063 -1.533,0.673 -0.072,0.179 -0.045,0.349 0.081,0.51 0.125,0.162 0.304,0.305 0.538,0.431 0.232,0.125 0.438,0.242 0.618,0.349 0.143,0.036 0.251,0.072 0.323,0.108 0.071,0.035 0.107,0.071 0.107,0.107 0.036,0.395 0.197,0.717 0.484,0.968 C -0.789,-0.072 -0.431,0.035 0,0 m -11.992,-25.544 c -1.399,0 -2.223,0.449 -2.474,1.344 -0.251,0.896 -0.135,2.035 0.35,3.415 0.483,1.38 1.156,2.832 2.016,4.356 0.861,1.524 1.721,2.922 2.581,4.195 0.861,1.272 1.541,2.249 2.043,2.931 0.144,0.25 0.27,0.43 0.377,0.537 -0.214,0.574 -0.018,1.21 0.592,1.91 0.609,0.699 1.325,1.218 2.151,1.559 0.824,0.34 1.416,0.277 1.775,-0.188 0.25,-0.395 0.304,-0.771 0.161,-1.13 -0.143,-0.358 -0.342,-0.698 -0.592,-1.021 -0.072,-0.072 -0.143,-0.161 -0.215,-0.269 -1.363,-1.936 -2.841,-4.096 -4.436,-6.48 -1.596,-2.385 -2.788,-4.383 -3.576,-5.996 -0.611,-1.399 -0.225,-2.17 1.156,-2.313 1.379,-0.143 3.173,0.071 5.377,0.646 2.205,0.572 4.23,1.191 6.077,1.855 1.846,0.663 2.948,1.102 3.308,1.318 0.393,0.214 0.707,0.25 0.94,0.107 0.234,-0.144 0.331,-0.368 0.296,-0.672 -0.036,-0.305 -0.287,-0.619 -0.753,-0.941 -2.331,-1.291 -5.369,-2.474 -9.115,-3.55 -3.746,-1.075 -6.426,-1.613 -8.039,-1.613"
             style="fill:#ffffff;fill-opacity:1;fill-rule:nonzero;stroke:none"
             id="path268" />
        </g>
        <g
           id="g270"
           transform="translate(607.6793,480.9472)">
          <path
             d="m 0,0 c -1.524,-2.564 -2.394,-4.544 -2.608,-5.942 0,-0.933 0.815,-1.192 2.447,-0.78 1.631,0.411 3.566,1.147 5.807,2.204 2.241,1.058 4.249,2.089 6.023,3.093 1.775,1.003 2.787,1.613 3.039,1.828 0.537,0.394 0.968,0.555 1.29,0.484 0.323,-0.072 0.484,-0.251 0.484,-0.537 0,-0.288 -0.179,-0.592 -0.538,-0.915 -1.004,-0.825 -2.796,-1.99 -5.377,-3.496 -2.582,-1.505 -5.253,-2.777 -8.013,-3.817 -2.761,-1.04 -4.903,-1.255 -6.426,-0.646 -1.524,0.61 -1.712,2.599 -0.565,5.969 0.968,2.546 2.617,5.279 4.948,8.201 2.33,2.922 4.445,4.652 6.345,5.19 0.861,0.143 1.56,0 2.098,-0.43 C 9.526,9.976 9.886,9.401 10.029,8.685 9.886,7.896 9.545,7.277 9.008,6.83 8.47,6.381 7.913,6.121 7.34,6.05 6.767,5.978 6.354,6.121 6.104,6.48 6.067,6.587 6.031,6.677 5.996,6.749 5.96,6.892 5.906,6.991 5.835,7.044 5.763,7.098 5.628,7.053 5.432,6.91 5.233,6.767 4.938,6.498 4.544,6.104 3.038,4.598 1.523,2.563 0,0"
             style="fill:#ffffff;fill-opacity:1;fill-rule:nonzero;stroke:none"
             id="path272" />
        </g>
        <g
           id="g274"
           transform="translate(650.566,481.6191)">
          <path
             d="M 0,0 C 0.968,0.502 1.541,0.538 1.721,0.108 1.9,-0.322 1.56,-0.843 0.699,-1.452 c -1.362,-0.825 -3.11,-1.622 -5.243,-2.393 -2.134,-0.771 -4.042,-1.004 -5.727,-0.699 -1.686,0.304 -2.564,1.658 -2.635,4.06 v 0.269 c 0.035,0.502 0,0.761 -0.108,0.78 -0.107,0.018 -0.413,-0.135 -0.914,-0.457 -5.557,-3.622 -9.635,-5.88 -12.234,-6.776 -2.599,-0.896 -4.132,-0.932 -4.598,-0.108 -0.573,1.147 0.144,2.931 2.151,5.351 2.007,2.42 4.598,4.723 7.771,6.91 3.173,2.187 6.211,3.504 9.115,3.953 2.904,0.448 4.948,-0.709 6.13,-3.469 C -5.485,5.611 -5.539,5.288 -5.754,5.001 -5.969,4.714 -6.257,4.518 -6.614,4.41 -6.973,4.302 -7.376,4.374 -7.824,4.625 c -0.449,0.25 -0.762,0.555 -0.942,0.914 0,0.072 0.018,0.143 0.054,0.215 0.035,0.072 0.071,0.143 0.108,0.215 0.036,0.072 0.072,0.143 0.108,0.216 0.035,0.071 0.035,0.142 0,0.214 -0.897,1.219 -2.439,1.399 -4.625,0.538 -2.188,-0.86 -4.5,-2.205 -6.938,-4.033 -2.438,-1.828 -4.5,-3.558 -6.184,-5.189 -1.686,-1.632 -2.474,-2.627 -2.366,-2.985 0.143,-0.359 1.559,0.233 4.249,1.775 2.688,1.541 7.098,4.427 13.228,8.658 0.323,0.179 0.654,0.242 0.995,0.188 0.341,-0.054 0.618,-0.242 0.834,-0.565 0.25,-0.43 0.269,-0.86 0.054,-1.29 -1.363,-2.94 -1.516,-4.751 -0.457,-5.432 1.057,-0.681 2.581,-0.735 4.57,-0.161 C -3.146,-1.524 -1.435,-0.825 0,0"
             style="fill:#ffffff;fill-opacity:1;fill-rule:nonzero;stroke:none"
             id="path276" />
        </g>
        <g
           id="g278"
           transform="translate(678.4146,484.4697)">
          <path
             d="m 0,0 c -2.043,1.039 -3.495,2.616 -4.355,4.732 -1.113,3.334 -0.44,7.224 2.016,11.67 2.455,4.445 5.943,8.962 10.46,13.552 4.517,4.588 9.348,8.738 14.492,12.449 5.145,3.71 9.868,6.471 14.17,8.282 4.303,1.809 7.476,2.177 9.519,1.102 1.577,-1.112 2.178,-2.797 1.802,-5.055 -0.376,-2.259 -1.148,-4.518 -2.313,-6.776 -1.165,-2.259 -2.106,-3.962 -2.823,-5.109 L 23.286,2.796 c -0.789,-1.327 -1.488,-2.492 -2.098,-3.495 -3.585,-5.665 -2.904,-5.235 2.043,1.29 0.288,0.358 0.574,0.717 0.862,1.076 1.72,2.258 4.544,5.808 8.47,10.647 3.925,4.841 8.245,9.886 12.959,15.139 4.714,5.252 9.106,9.608 13.175,13.068 4.07,3.459 7.09,4.92 9.062,4.382 1.649,-0.753 2.411,-2.465 2.286,-5.135 -0.126,-2.671 -0.735,-5.8 -1.829,-9.384 -1.094,-3.586 -2.268,-7.099 -3.522,-10.541 -1.148,-3.226 -2.035,-5.942 -2.662,-8.147 -0.628,-2.205 -0.673,-3.468 -0.135,-3.791 1.399,-0.287 4.338,1.192 8.82,4.436 4.481,3.245 9.455,7.161 14.923,11.751 5.466,4.589 10.387,8.783 14.761,12.584 3.944,3.405 6.616,5.664 8.013,6.776 0.108,0.107 0.251,0.215 0.431,0.322 0.788,0.645 1.873,1.443 3.254,2.393 1.379,0.95 2.759,1.739 4.14,2.366 1.38,0.627 2.447,0.78 3.199,0.457 1.112,-0.61 1.444,-1.846 0.996,-3.71 -0.45,-1.864 -1.193,-3.818 -2.232,-5.862 -1.041,-2.043 -1.865,-3.567 -2.473,-4.571 -0.109,-0.143 -0.181,-0.269 -0.216,-0.376 -2.94,-4.948 -7.547,-12.046 -13.821,-21.296 C 97.641,7.187 93.616,1.12 89.619,-5.028 c -3.998,-6.149 -7.376,-11.643 -10.137,-16.483 -2.76,-4.84 -4.284,-8.335 -4.571,-10.487 -0.072,-0.895 0.108,-1.361 0.538,-1.398 0.431,-0.035 0.968,0.073 1.614,0.323 0.071,0.036 0.161,0.054 0.268,0.054 0.502,0.18 0.905,0.144 1.21,-0.108 0.305,-0.25 0.412,-0.564 0.323,-0.941 -0.09,-0.376 -0.475,-0.654 -1.156,-0.833 -0.682,-0.251 -1.452,-0.412 -2.312,-0.484 -0.861,-0.072 -1.596,0.161 -2.206,0.698 -1.075,1.364 -0.654,4.294 1.264,8.793 1.918,4.5 4.706,9.806 8.362,15.918 3.658,6.112 7.53,12.252 11.617,18.419 4.087,6.165 7.725,11.579 10.917,16.24 2.688,3.907 4.624,6.794 5.807,8.658 0.035,0.035 0.072,0.09 0.108,0.162 0.286,0.43 0.806,1.254 1.559,2.474 0.753,1.218 1.532,2.554 2.339,4.006 0.807,1.452 1.452,2.733 1.937,3.845 0.483,1.11 0.599,1.756 0.349,1.936 -0.288,0.108 -0.87,-0.099 -1.748,-0.618 -0.879,-0.521 -1.847,-1.166 -2.904,-1.937 -1.058,-0.771 -2.008,-1.497 -2.85,-2.177 -0.843,-0.682 -1.389,-1.13 -1.64,-1.345 -1.04,-0.86 -2.671,-2.295 -4.894,-4.302 C 100.437,32.768 96.888,29.702 92.766,26.189 88.643,22.675 84.438,19.27 80.154,15.972 75.87,12.673 72.008,10.038 68.565,8.066 65.124,6.094 62.597,5.359 60.983,5.861 c -1.363,0.61 -1.999,1.972 -1.909,4.087 0.089,2.115 0.6,4.643 1.532,7.583 0.933,2.939 1.991,5.951 3.173,9.034 1.541,3.908 2.707,7.332 3.496,10.272 0.788,2.939 0.591,4.714 -0.591,5.324 C 65.429,42.519 63.277,41.327 60.23,38.584 57.183,35.842 53.696,32.266 49.771,27.856 45.845,23.446 41.964,18.893 38.128,14.197 34.291,9.5 30.939,5.359 28.072,1.774 25.849,-1.022 24.182,-3.084 23.07,-4.41 c -0.358,-0.43 -1.03,-1.183 -2.016,-2.258 -0.987,-1.076 -2.008,-2.026 -3.066,-2.851 -1.057,-0.824 -1.854,-1.11 -2.392,-0.86 -0.789,0.609 -0.87,1.855 -0.242,3.737 0.626,1.883 1.478,3.845 2.554,5.889 1.075,2.044 1.936,3.585 2.581,4.625 0.108,0.179 0.197,0.322 0.269,0.43 L 40.44,36.353 c 0.395,0.609 1.121,1.9 2.178,3.872 1.058,1.971 1.927,3.952 2.609,5.942 0.68,1.99 0.627,3.308 -0.162,3.953 -1.505,0.753 -4.186,0.188 -8.04,-1.694 C 33.171,46.543 28.86,43.81 24.093,40.225 19.324,36.64 14.807,32.696 10.541,28.394 6.273,24.092 2.967,19.915 0.619,15.864 -1.729,11.812 -2.42,8.389 -1.452,5.593 -1.416,5.485 -1.344,5.324 -1.236,5.108 -1.129,4.894 -1.013,4.696 -0.887,4.517 -0.762,4.337 -0.627,4.266 -0.483,4.302 -0.197,4.445 0.09,4.481 0.377,4.41 0.663,4.337 0.914,4.194 1.13,3.979 2.276,2.616 2.671,1.469 2.313,0.538 1.954,-0.395 1.184,-0.574 0,0"
             style="fill:#ffffff;fill-opacity:1;fill-rule:nonzero;stroke:none"
             id="path280" />
        </g>
        <g
           id="g282"
           transform="translate(811.0826,481.6191)">
          <path
             d="m 0,0 c 0.968,0.502 1.541,0.538 1.721,0.108 0.178,-0.43 -0.161,-0.951 -1.022,-1.56 -1.363,-0.825 -3.111,-1.622 -5.243,-2.393 -2.134,-0.771 -4.043,-1.004 -5.727,-0.699 -1.686,0.304 -2.564,1.658 -2.635,4.06 v 0.269 c 0.035,0.502 0,0.761 -0.109,0.78 -0.107,0.018 -0.412,-0.135 -0.914,-0.457 -5.557,-3.622 -9.634,-5.88 -12.234,-6.776 -2.599,-0.896 -4.131,-0.932 -4.598,-0.108 -0.573,1.147 0.144,2.931 2.152,5.351 2.006,2.42 4.597,4.723 7.77,6.91 3.173,2.187 6.211,3.504 9.115,3.953 2.905,0.448 4.948,-0.709 6.131,-3.469 C -5.485,5.611 -5.539,5.288 -5.754,5.001 -5.97,4.714 -6.257,4.518 -6.615,4.41 -6.974,4.302 -7.377,4.374 -7.825,4.625 c -0.448,0.25 -0.762,0.555 -0.941,0.914 0,0.072 0.018,0.143 0.054,0.215 0.035,0.072 0.071,0.143 0.108,0.215 0.035,0.072 0.071,0.143 0.107,0.216 0.035,0.071 0.035,0.142 0,0.214 -0.897,1.219 -2.439,1.399 -4.625,0.538 -2.187,-0.86 -4.499,-2.205 -6.937,-4.033 -2.438,-1.828 -4.5,-3.558 -6.184,-5.189 -1.686,-1.632 -2.474,-2.627 -2.366,-2.985 0.143,-0.359 1.559,0.233 4.248,1.775 2.689,1.541 7.098,4.427 13.229,8.658 0.322,0.179 0.653,0.242 0.995,0.188 0.34,-0.054 0.618,-0.242 0.833,-0.565 0.25,-0.43 0.269,-0.86 0.054,-1.29 -1.362,-2.94 -1.515,-4.751 -0.457,-5.432 1.057,-0.681 2.581,-0.735 4.571,-0.161 C -3.146,-1.524 -1.435,-0.825 0,0"
             style="fill:#ffffff;fill-opacity:1;fill-rule:nonzero;stroke:none"
             id="path284" />
        </g>
        <g
           id="g286"
           transform="translate(844.5089,524.7622)">
          <path
             d="m 0,0 c -0.294,-0.46 -0.501,-0.838 -0.618,-1.135 -0.118,-0.297 -0.044,-0.432 0.221,-0.405 0.441,0.054 0.883,0.094 1.324,0.122 0.294,0 0.529,0.026 0.706,0.08 0.177,0.055 0.338,0.169 0.485,0.345 0.148,0.175 0.338,0.439 0.574,0.79 C 5.958,4.93 8.224,9.469 9.489,13.413 7.9,11.792 5.148,7.956 1.236,1.904 1.06,1.634 0.883,1.364 0.706,1.094 0.47,0.742 0.236,0.378 0,0 m -2.78,-4.255 c -1.001,-1.513 -2.045,-3.107 -3.134,-4.782 -2.619,-4.16 -5.413,-8.321 -8.385,-12.481 -1.53,-2.107 -1.427,-2.283 0.309,-0.527 4.443,4.755 9.048,10.577 13.814,17.466 0.323,0.512 0.544,0.871 0.662,1.074 0.117,0.202 0.125,0.324 0.021,0.364 -0.103,0.041 -0.301,0.047 -0.595,0.02 H -0.22 c -0.06,-0.027 -0.133,-0.04 -0.222,-0.04 -0.5,-0.027 -0.941,-0.101 -1.324,-0.223 -0.382,-0.121 -0.721,-0.412 -1.014,-0.871 m -20.257,-2.391 c -0.059,-0.243 -0.28,-0.371 -0.662,-0.385 -0.382,-0.014 -0.794,0.061 -1.236,0.223 -0.441,0.162 -0.764,0.371 -0.97,0.628 -0.206,0.256 -0.148,0.533 0.176,0.831 0.324,0.297 1.044,0.58 2.162,0.851 5.561,0.864 11.018,1.607 16.373,2.229 1.03,0.107 1.817,0.215 2.361,0.324 0.545,0.107 0.972,0.29 1.28,0.547 0.31,0.256 0.625,0.668 0.949,1.236 0.53,0.837 1.074,1.675 1.633,2.512 0.117,0.189 0.235,0.378 0.353,0.568 4.56,6.996 7.65,11.17 9.268,12.521 2.53,2.134 3.619,1.783 3.266,-1.053 C 11.327,10.684 9.268,6.092 5.737,0.608 5.737,0.581 5.722,0.54 5.693,0.486 5.164,-0.27 4.914,-0.73 4.943,-0.892 4.972,-1.054 5.31,-1.094 5.958,-1.013 h 0.309 c 0.323,0.026 0.647,0.041 0.971,0.041 7.326,0.431 14.857,0.621 22.596,0.567 0.5,0 0.823,-0.102 0.971,-0.304 0.147,-0.203 0.132,-0.392 -0.045,-0.567 C 30.584,-1.453 30.231,-1.527 29.702,-1.499 21.405,-1.365 13.357,-1.716 5.561,-2.553 5.296,-2.58 5.06,-2.608 4.855,-2.634 4.414,-2.634 4.06,-2.689 3.796,-2.796 3.531,-2.905 3.251,-3.175 2.957,-3.607 -0.721,-8.794 -4.567,-13.67 -8.583,-18.236 c -4.017,-4.565 -7.364,-7.969 -10.041,-10.212 -0.147,-0.135 -0.265,-0.229 -0.353,-0.283 -0.088,-0.055 -0.162,-0.095 -0.22,-0.122 -0.06,-0.027 -0.118,-0.067 -0.177,-0.121 -0.059,-0.055 -0.133,-0.136 -0.221,-0.243 -0.088,-0.109 -0.206,-0.284 -0.353,-0.527 -6.531,-9.564 -13.107,-19.1 -19.728,-28.61 0.53,0 0.773,-0.182 0.729,-0.547 -0.044,-0.365 -0.272,-0.695 -0.684,-0.993 -1.294,-0.891 -2.192,-1.161 -2.692,-0.81 -0.5,0.351 -0.47,1.121 0.089,2.31 1.529,2.215 3.059,4.417 4.589,6.605 10.68,15.237 21.184,30.636 31.511,46.197 0.117,0.216 0.235,0.405 0.353,0.567 0.353,0.459 0.522,0.776 0.508,0.952 -0.016,0.176 -0.375,0.209 -1.082,0.102 -5.472,-0.73 -11.033,-1.54 -16.682,-2.432 z"
             style="fill:#ffffff;fill-opacity:1;fill-rule:nonzero;stroke:none"
             id="path288" />
        </g>
        <g
           id="g290"
           transform="translate(837.7116,488.7177)">
          <path
             d="m 0,0 c -0.323,-0.107 -0.879,-0.403 -1.668,-0.887 -0.788,-0.484 -1.622,-1.031 -2.5,-1.64 -0.879,-0.611 -1.641,-1.183 -2.286,-1.721 -0.645,-0.538 -1.022,-0.933 -1.129,-1.183 -0.107,-0.252 0.215,-0.252 0.968,0 1.04,0.394 2.312,1.083 3.818,2.07 1.506,0.986 2.652,1.891 3.442,2.716 C 1.003,-0.251 1.156,0 1.102,0.107 1.048,0.215 0.681,0.179 0,0 M 1.075,2.958 C 3.082,2.528 3.89,1.667 3.495,0.376 3.101,-0.914 2.061,-2.258 0.376,-3.657 -1.31,-5.055 -3.058,-6.104 -4.867,-6.803 c -1.811,-0.699 -3.128,-0.672 -3.952,0.081 -0.575,-0.717 -1.229,-1.659 -1.963,-2.823 -0.736,-1.166 -1.156,-2.197 -1.265,-3.093 0,-1.362 0.933,-1.953 2.797,-1.774 1.863,0.179 4.087,0.77 6.668,1.774 2.582,1.004 4.948,2.035 7.099,3.093 2.151,1.057 3.513,1.783 4.087,2.178 0.43,0.286 0.834,0.411 1.209,0.376 0.377,-0.036 0.539,-0.234 0.485,-0.592 -0.054,-0.358 -0.529,-0.86 -1.425,-1.505 -1.076,-0.753 -2.895,-1.82 -5.459,-3.2 -2.563,-1.38 -5.279,-2.572 -8.146,-3.576 -2.87,-1.003 -5.307,-1.344 -7.315,-1.022 -2.007,0.323 -2.974,1.793 -2.903,4.41 0.179,1.756 1.182,3.853 3.012,6.292 1.828,2.437 3.952,4.579 6.372,6.426 2.42,1.846 4.633,2.751 6.641,2.716"
             style="fill:#ffffff;fill-opacity:1;fill-rule:nonzero;stroke:none"
             id="path292" />
        </g>
        <g
           id="g294"
           transform="translate(860.0081,499.0429)">
          <path
             d="m 0,0 c 0.968,-0.072 1.416,-0.368 1.344,-0.887 -0.073,-0.52 -0.421,-1.041 -1.048,-1.56 -0.628,-0.52 -1.291,-0.86 -1.99,-1.022 -0.7,-0.161 -1.21,0.063 -1.533,0.673 -0.072,0.179 -0.045,0.349 0.081,0.51 0.125,0.162 0.304,0.305 0.538,0.431 0.232,0.125 0.438,0.242 0.618,0.349 0.143,0.036 0.251,0.072 0.323,0.108 0.071,0.035 0.107,0.071 0.107,0.107 0.036,0.395 0.197,0.717 0.484,0.968 C -0.789,-0.072 -0.431,0.035 0,0 m -11.992,-25.544 c -1.399,0 -2.223,0.449 -2.474,1.344 -0.251,0.896 -0.135,2.035 0.35,3.415 0.483,1.38 1.156,2.832 2.016,4.356 0.861,1.524 1.721,2.922 2.581,4.195 0.861,1.272 1.541,2.249 2.043,2.931 0.144,0.25 0.27,0.43 0.377,0.537 -0.214,0.574 -0.018,1.21 0.592,1.91 0.609,0.699 1.325,1.218 2.151,1.559 0.824,0.34 1.416,0.277 1.775,-0.188 0.25,-0.395 0.304,-0.771 0.161,-1.13 -0.143,-0.358 -0.342,-0.698 -0.592,-1.021 -0.072,-0.072 -0.143,-0.161 -0.215,-0.269 -1.363,-1.936 -2.841,-4.096 -4.436,-6.48 -1.596,-2.385 -2.788,-4.383 -3.576,-5.996 -0.611,-1.399 -0.225,-2.17 1.156,-2.313 1.379,-0.143 3.173,0.071 5.377,0.646 2.205,0.572 4.23,1.191 6.077,1.855 1.846,0.663 2.948,1.102 3.308,1.318 0.393,0.214 0.707,0.25 0.94,0.107 0.234,-0.144 0.331,-0.368 0.296,-0.672 -0.036,-0.305 -0.287,-0.619 -0.753,-0.941 -2.331,-1.291 -5.369,-2.474 -9.115,-3.55 -3.746,-1.075 -6.426,-1.613 -8.039,-1.613"
             style="fill:#ffffff;fill-opacity:1;fill-rule:nonzero;stroke:none"
             id="path296" />
        </g>
      </g>
    </g>
    <text
       xml:space="preserve"
       transform="matrix(1,0,0,-0.90258553,297.5249,427.7163)"
       style="font-variant:normal;font-weight:bold;font-stretch:normal;font-size:31.4481px;font-family:Montserrat;-inkscape-font-specification:Montserrat-Bold;writing-mode:lr-tb;fill:#90f1fd;fill-opacity:1;fill-rule:nonzero;stroke:none"
       id="text300"><tspan
         x="0 36.825726 72.299179 107.45816 144.28389 179.44286 205.48189 243.81398 283.62726 308.25113 349.95132 386.77704 427.91116 461.96945 501.78275 540.62115"
         y="0"
         sodipodi:role="line"
         id="tspan298">ESTETICĂ DENTARĂ</tspan></text>
    <g
       id="g302">
      <g
         id="g304"
         clip-path="url(#clipPath308)">
        <g
           id="g310"
           transform="translate(266.5041,586.6398)">
          <path
             d="M 0,0 11.004,-2.135 -0.53,-4.134 -2.26,-15.372 -4.508,-4.274 -15.497,-2.108 -4.68,0.499 -2.233,11.129 Z"
             style="fill:#f7fff9;fill-opacity:1;fill-rule:nonzero;stroke:none"
             id="path312" />
        </g>
        <g
           id="g314"
           transform="translate(283.9097,562.0126)">
          <path
             d="m 0,0 7.713,-1.497 -8.085,-1.401 -1.212,-7.877 -1.576,7.779 -7.702,1.518 7.582,1.828 1.715,7.451 z"
             style="fill:#f7fff9;fill-opacity:1;fill-rule:nonzero;stroke:none"
             id="path316" />
        </g>
      </g>
    </g>
  </g>
</svg>
